<svg width="125" height="125" viewBox="0 0 125 125" fill="none" xmlns="http://www.w3.org/2000/svg">
<path d="M37.458 36.4584C37.458 22.6878 48.729 11.4167 62.4997 11.4167C76.2703 11.4167 87.5413 22.6878 87.5413 36.4584V45.8751H79.1247V36.4584C79.1247 27.3124 71.6457 19.8334 62.4997 19.8334C53.3536 19.8334 45.8747 27.3124 45.8747 36.4584V45.8751H37.458V36.4584Z" fill="#CDD2D4" stroke="#B7B9BA" stroke-width="2"/>
<path d="M93.7497 113.583H31.2497C26.0728 113.583 21.833 109.344 21.833 104.167V57.2917C21.833 52.1148 26.0728 47.875 31.2497 47.875H93.7497C98.9266 47.875 103.166 52.1148 103.166 57.2917V104.167C103.166 109.344 98.9266 113.583 93.7497 113.583Z" fill="#E8EAEB" stroke="#B7B9BA" stroke-width="2"/>
<path d="M69.8125 80.7292C69.8125 84.7678 66.5386 88.0417 62.5 88.0417C58.4614 88.0417 55.1875 84.7678 55.1875 80.7292C55.1875 76.6907 58.4614 73.4167 62.5 73.4167C66.5386 73.4167 69.8125 76.6907 69.8125 80.7292Z" fill="#B3B6B8" stroke="#B7B9BA"/>
</svg>
