<svg width="25" height="25" viewBox="0 0 25 25" fill="none" xmlns="http://www.w3.org/2000/svg">
<path d="M6.39844 2.23914L3.39844 6.23914V20.2391C3.39844 20.7696 3.60915 21.2783 3.98422 21.6533C4.3593 22.0284 4.868 22.2391 5.39844 22.2391H19.3984C19.9289 22.2391 20.4376 22.0284 20.8127 21.6533C21.1877 21.2783 21.3984 20.7696 21.3984 20.2391V6.23914L18.3984 2.23914H6.39844Z" stroke="black" stroke-width="2" stroke-linecap="round" stroke-linejoin="round"/>
<path d="M3.39844 6.23914H21.3984" stroke="black" stroke-width="2" stroke-linecap="round" stroke-linejoin="round"/>
<path d="M16.3984 10.2391C16.3984 11.3 15.977 12.3174 15.2269 13.0676C14.4767 13.8177 13.4593 14.2391 12.3984 14.2391C11.3376 14.2391 10.3202 13.8177 9.57001 13.0676C8.81986 12.3174 8.39844 11.3 8.39844 10.2391" stroke="black" stroke-width="2" stroke-linecap="round" stroke-linejoin="round"/>
</svg>
