<svg width="25" height="25" viewBox="0 0 25 25" fill="none" xmlns="http://www.w3.org/2000/svg">
<g clip-path="url(#clip0_61_62)">
<path d="M17.4248 21.4752V19.4752C17.4248 18.4144 17.0034 17.3969 16.2532 16.6468C15.5031 15.8966 14.4857 15.4752 13.4248 15.4752H5.4248C4.36394 15.4752 3.34652 15.8966 2.59638 16.6468C1.84623 17.3969 1.4248 18.4144 1.4248 19.4752V21.4752" stroke="black" stroke-width="2" stroke-linecap="round" stroke-linejoin="round"/>
<path d="M9.4248 11.4752C11.6339 11.4752 13.4248 9.68436 13.4248 7.47522C13.4248 5.26608 11.6339 3.47522 9.4248 3.47522C7.21567 3.47522 5.4248 5.26608 5.4248 7.47522C5.4248 9.68436 7.21567 11.4752 9.4248 11.4752Z" stroke="black" stroke-width="2" stroke-linecap="round" stroke-linejoin="round"/>
<path d="M23.4248 21.4752V19.4752C23.4241 18.589 23.1292 17.728 22.5862 17.0275C22.0432 16.3271 21.2829 15.8268 20.4248 15.6052" stroke="black" stroke-width="2" stroke-linecap="round" stroke-linejoin="round"/>
<path d="M16.4248 3.60522C17.2852 3.82553 18.0478 4.32593 18.5924 5.02753C19.137 5.72914 19.4326 6.59205 19.4326 7.48022C19.4326 8.36839 19.137 9.2313 18.5924 9.93291C18.0478 10.6345 17.2852 11.1349 16.4248 11.3552" stroke="black" stroke-width="2" stroke-linecap="round" stroke-linejoin="round"/>
</g>
<defs>
<clipPath id="clip0_61_62">
<rect width="24" height="24" fill="white" transform="translate(0.424805 0.47522)"/>
</clipPath>
</defs>
</svg>
